{"title":"Urban Legend 1998 iNTERNAL DVDRip XViD-SPRiNTER","uid":8810878,"size":738602212,"categoryP":"video","categoryS":"movies","magnet":"?xt=urn:btih:09700e79d52c8599eb1525ff9fc3d570b4c2c4a9&amp;dn=Urban+Legend+1998+iNTERNAL+DVDRip+XViD-SPRiNTER&amp;tr=udp%3A%2F%2Ftracker.openbittorrent.com%3A80&amp;tr=udp%3A%2F%2Fopen.demonii.com%3A1337&amp;tr=udp%3A%2F%2Ftracker.coppersurfer.tk%3A6969&amp;tr=udp%3A%2F%2Fexodus.desync.com%3A6969","seeders":3,"leechers":0,"uploader":".BONE.","files":-1,"time":1376454142,"description":"[img]http://www.ultraimg.com/images/nvR7c.jpg[/img]\n\nA college coed suspects that murders around her campus are connected to Urban Legends. \n\nSubtitles: English\n\nDate: 2010.05\n\nDirector: Jaime Blanks\nGenre: Horror | Thriller | Mystery\n\nCast\n\nJared Leto ... Paul Gardener\n\nAlicia Witt ... Natalie Simon\n\nRebecca Gayheart ... Brenda Bates\n\nMichael Rosenbaum ... Parker Riley\n\nLoretta Devine ... Reese Wilson\n\nJoshua Jackson ... Damon Brooks\n\nTara Reid ... Sasha Thomas\n\nRelease notes\n\nEnjoy!\n\nGreetings\n\nNTX aAF FiCO HNR CiNEFiLE AEN HUMANiSM\n\nDetails\n\n: AVI\n/Info : Audio Video Interleave\nile size : 696 MiB\nDuration : 1h 39mn\nOverall bit rate : 977 Kbps\nWriting application : Nandub v1.0rc2\nWriting library : Nandub build 1852/release\n\nVideo\nID : 0\n: MPEG-4 Visual\nprofile : Advanced Simple@L5\nsettings, BVOP : No\nsettings, QPel : No\nsettings, GMC : No warppoints\nsettings, Matrix : Default (H.263)\nCodec ID : XVID\nCodec ID/Hint : XviD\nDuration : 1h 39mn\nBit rate : 853 Kbps\nWidth : 608 pixels\nHeight : 256 pixels\nDisplay aspect ratio : 2.35:1\nme rate : 23.976 fps\nResolution : 8 bits\nColorimetry : 4:2:0\nScan type : Progressive\nBits/(Pixel*Frame) : 0.228\nStream size : 608 MiB (87%)\nWriting library : XviD 1.1.2 (UTC 2006-11-01)\n\nAudio\nID : 1\n: MPEG Audio\nversion : Version 1\nprofile : Layer 3\nCodec ID : 55\nCodec ID/Hint : MP3\nDuration : 1h 39mn\nBit rate mode : Variable\nBit rate : 111 Kbps\nMinimum bit rate : 40.0 Kbps\nChannel(s) : 2 channels\nSampling rate : 48.0 KHz\nStream size : 79.3 MiB (11%)\nAlignment : Aligned on interleaves\nInterleave, duration : 24 ms (0.58 video frame)\nInterleave, preload duration : 338 ms\nWriting library : LAME3.95\nEncoding settings : -m s -V 6 -q 3 -lowpass 16 --vbr-old -b 40","torrent":{"xt":"urn:btih:09700e79d52c8599eb1525ff9fc3d570b4c2c4a9","amp;dn":"Urban+Legend+1998+iNTERNAL+DVDRip+XViD-SPRiNTER","amp;tr":["udp%3A%2F%2Ftracker.openbittorrent.com%3A80","udp%3A%2F%2Fopen.demonii.com%3A1337","udp%3A%2F%2Ftracker.coppersurfer.tk%3A6969","udp%3A%2F%2Fexodus.desync.com%3A6969"],"infoHash":"09700e79d52c8599eb1525ff9fc3d570b4c2c4a9","infoHashBuffer":{"type":"Buffer","data":[9,112,14,121,213,44,133,153,235,21,37,255,159,195,213,112,180,194,196,169]},"announce":[],"urlList":[]}}